<svg width="24" height="24" viewBox="0 0 24 24" fill="none" xmlns="http://www.w3.org/2000/svg">
<path d="M18.0429 7.52695C18.4334 7.13643 18.4334 6.50326 18.0429 6.11274L17.8873 5.95711C17.4967 5.56658 16.8636 5.56658 16.4731 5.95711L12 10.4302L7.52695 5.95711C7.13643 5.56658 6.50326 5.56658 6.11274 5.95711L5.95711 6.11274C5.56658 6.50326 5.56658 7.13643 5.95711 7.52695L10.4302 12L5.95711 16.4731C5.56658 16.8636 5.56658 17.4967 5.95711 17.8873L6.11274 18.0429C6.50326 18.4334 7.13643 18.4334 7.52695 18.0429L12 13.5698L16.4731 18.0429C16.8636 18.4334 17.4967 18.4334 17.8873 18.0429L18.0429 17.8873C18.4334 17.4967 18.4334 16.8636 18.0429 16.4731L13.5698 12L18.0429 7.52695Z" fill="#A8A8A8" />
</svg>
