<svg width="70" height="71" viewBox="0 0 70 71" fill="none" xmlns="http://www.w3.org/2000/svg">
<path d="M69.5 0L0 70.5V3C0 1.34315 1.34314 0 3 0H69.5Z" fill="#2DC053"/>
<path fill-rule="evenodd" clip-rule="evenodd" d="M21.3607 12.694H25.3721C26.4767 12.694 27.3721 13.5894 27.3721 14.694V18.8088L28.9615 18.8088C30.0872 18.8088 30.9998 19.7214 30.9998 20.8471C30.9998 21.9728 30.0872 22.8853 28.9615 22.8853H27.3721V26.9999C27.3721 28.1045 26.4767 28.9999 25.3721 28.9999H21.2323V27.6072C21.2323 26.4769 20.3161 25.5607 19.1858 25.5607C18.0556 25.5607 17.1393 26.4769 17.1393 27.6072V28.9999H13C11.8954 28.9999 11 28.1045 11 26.9999V22.8852H13.0548C14.1805 22.8852 15.093 21.9727 15.093 20.847C15.093 19.7213 14.1805 18.8088 13.0548 18.8088H11V14.694C11 13.5894 11.8954 12.694 13 12.694H17.2676V11.0465C17.2676 9.91626 18.1839 9 19.3142 9C20.4444 9 21.3607 9.91626 21.3607 11.0465V12.694Z" fill="white" />
</svg>
