<svg width="27" height="27" viewBox="0 0 27 27" fill="none" xmlns="http://www.w3.org/2000/svg">
<path d="M13.5 1C20.4034 1 26 6.59659 26 13.5C26 20.4034 20.4034 26 13.5 26C6.59659 26 1 20.4034 1 13.5C1 6.59659 6.59659 1 13.5 1Z" fill="#379611" />
<path fill-rule="evenodd" clip-rule="evenodd" d="M13.5 2C7.14888 2 2 7.14888 2 13.5C2 19.8511 7.14888 25 13.5 25C19.8511 25 25 19.8511 25 13.5C25 7.14888 19.8511 2 13.5 2ZM0 13.5C0 6.04431 6.04431 0 13.5 0C20.9557 0 27 6.04431 27 13.5C27 20.9557 20.9557 27 13.5 27C6.04431 27 0 20.9557 0 13.5ZM12.5 16.7676V6.68182H14.5V16.7676L18.4747 12.7929L19.8889 14.2071L13.5 20.596L7.11108 14.2071L8.52529 12.7929L12.5 16.7676Z" fill="white"/>
</svg>
